<mxfile host="app.diagrams.net" modified="2021-01-25T14:41:23.947Z" agent="5.0 (Macintosh; Intel Mac OS X 10_15_7) AppleWebKit/537.36 (KHTML, like Gecko) Chrome/87.0.4280.141 Safari/537.36" etag="tuS-N8NFA2IcRGQGmzr2" version="14.2.6" type="github">
  <diagram id="Pu9b-aGJsjDclIpEk9JR" name="Page-1">
    <mxGraphModel dx="2066" dy="1106" grid="1" gridSize="10" guides="1" tooltips="1" connect="1" arrows="1" fold="1" page="1" pageScale="1" pageWidth="1169" pageHeight="827" math="0" shadow="0">
      <root>
        <mxCell id="0" />
        <mxCell id="1" parent="0" />
        <mxCell id="EjBtOwV83z-zT7zmTmtW-1" value="&lt;font style=&quot;font-size: 16px&quot;&gt;Thread&lt;/font&gt;" style="rounded=1;whiteSpace=wrap;html=1;" vertex="1" parent="1">
          <mxGeometry x="240" y="80" width="80" height="80" as="geometry" />
        </mxCell>
        <mxCell id="EjBtOwV83z-zT7zmTmtW-5" value="&lt;font style=&quot;font-size: 16px&quot;&gt;Thread&lt;/font&gt;" style="rounded=1;whiteSpace=wrap;html=1;" vertex="1" parent="1">
          <mxGeometry x="400" y="80" width="80" height="80" as="geometry" />
        </mxCell>
        <mxCell id="EjBtOwV83z-zT7zmTmtW-6" value="&lt;font style=&quot;font-size: 16px&quot;&gt;Thread&lt;/font&gt;" style="rounded=1;whiteSpace=wrap;html=1;" vertex="1" parent="1">
          <mxGeometry x="560" y="80" width="80" height="80" as="geometry" />
        </mxCell>
        <mxCell id="EjBtOwV83z-zT7zmTmtW-7" value="&lt;font style=&quot;font-size: 16px&quot;&gt;Working Memory&lt;/font&gt;" style="rounded=1;whiteSpace=wrap;html=1;" vertex="1" parent="1">
          <mxGeometry x="220" y="230" width="120" height="60" as="geometry" />
        </mxCell>
        <mxCell id="EjBtOwV83z-zT7zmTmtW-8" value="&lt;font style=&quot;font-size: 16px&quot;&gt;Working Memory&lt;/font&gt;" style="rounded=1;whiteSpace=wrap;html=1;" vertex="1" parent="1">
          <mxGeometry x="380" y="230" width="120" height="60" as="geometry" />
        </mxCell>
        <mxCell id="EjBtOwV83z-zT7zmTmtW-9" value="&lt;font style=&quot;font-size: 16px&quot;&gt;Working Memory&lt;/font&gt;" style="rounded=1;whiteSpace=wrap;html=1;" vertex="1" parent="1">
          <mxGeometry x="540" y="230" width="120" height="60" as="geometry" />
        </mxCell>
        <mxCell id="EjBtOwV83z-zT7zmTmtW-10" value="&lt;font style=&quot;font-size: 17px&quot;&gt;Save &amp;amp; Load Operations&lt;/font&gt;" style="rounded=0;whiteSpace=wrap;html=1;" vertex="1" parent="1">
          <mxGeometry x="265" y="360" width="350" height="60" as="geometry" />
        </mxCell>
        <mxCell id="EjBtOwV83z-zT7zmTmtW-11" value="" style="shape=flexArrow;endArrow=classic;startArrow=classic;html=1;" edge="1" parent="1">
          <mxGeometry width="50" height="50" relative="1" as="geometry">
            <mxPoint x="279.5" y="230" as="sourcePoint" />
            <mxPoint x="279.5" y="160" as="targetPoint" />
          </mxGeometry>
        </mxCell>
        <mxCell id="EjBtOwV83z-zT7zmTmtW-12" value="" style="shape=flexArrow;endArrow=classic;startArrow=classic;html=1;" edge="1" parent="1">
          <mxGeometry width="50" height="50" relative="1" as="geometry">
            <mxPoint x="439.5" y="230" as="sourcePoint" />
            <mxPoint x="439.5" y="160" as="targetPoint" />
          </mxGeometry>
        </mxCell>
        <mxCell id="EjBtOwV83z-zT7zmTmtW-13" value="" style="shape=flexArrow;endArrow=classic;startArrow=classic;html=1;" edge="1" parent="1">
          <mxGeometry width="50" height="50" relative="1" as="geometry">
            <mxPoint x="599.5" y="230" as="sourcePoint" />
            <mxPoint x="599.5" y="160" as="targetPoint" />
          </mxGeometry>
        </mxCell>
        <mxCell id="EjBtOwV83z-zT7zmTmtW-14" value="" style="shape=flexArrow;endArrow=classic;startArrow=classic;html=1;exitX=0.117;exitY=-0.033;exitDx=0;exitDy=0;exitPerimeter=0;" edge="1" parent="1" source="EjBtOwV83z-zT7zmTmtW-10">
          <mxGeometry width="50" height="50" relative="1" as="geometry">
            <mxPoint x="279.5" y="360" as="sourcePoint" />
            <mxPoint x="279.5" y="290" as="targetPoint" />
          </mxGeometry>
        </mxCell>
        <mxCell id="EjBtOwV83z-zT7zmTmtW-15" value="" style="shape=flexArrow;endArrow=classic;startArrow=classic;html=1;" edge="1" parent="1">
          <mxGeometry width="50" height="50" relative="1" as="geometry">
            <mxPoint x="440" y="360" as="sourcePoint" />
            <mxPoint x="440" y="290" as="targetPoint" />
          </mxGeometry>
        </mxCell>
        <mxCell id="EjBtOwV83z-zT7zmTmtW-16" value="" style="shape=flexArrow;endArrow=classic;startArrow=classic;html=1;exitX=0.869;exitY=-0.017;exitDx=0;exitDy=0;exitPerimeter=0;" edge="1" parent="1" source="EjBtOwV83z-zT7zmTmtW-10">
          <mxGeometry width="50" height="50" relative="1" as="geometry">
            <mxPoint x="599.5" y="360" as="sourcePoint" />
            <mxPoint x="599.5" y="290" as="targetPoint" />
          </mxGeometry>
        </mxCell>
        <mxCell id="EjBtOwV83z-zT7zmTmtW-17" value="&lt;font style=&quot;font-size: 17px&quot;&gt;Main Memory&lt;/font&gt;" style="ellipse;whiteSpace=wrap;html=1;" vertex="1" parent="1">
          <mxGeometry x="335" y="480" width="210" height="110" as="geometry" />
        </mxCell>
        <mxCell id="EjBtOwV83z-zT7zmTmtW-18" value="" style="shape=flexArrow;endArrow=classic;startArrow=classic;html=1;" edge="1" parent="1">
          <mxGeometry width="50" height="50" relative="1" as="geometry">
            <mxPoint x="440" y="480" as="sourcePoint" />
            <mxPoint x="439.5" y="420" as="targetPoint" />
          </mxGeometry>
        </mxCell>
      </root>
    </mxGraphModel>
  </diagram>
</mxfile>
